<svg xmlns="http://www.w3.org/2000/svg" version="1.1" viewBox="-5.0 -10.0 110.0 135.0">
 <path d="m92.898 39.699c2.2656 0 4.1016-1.8359 4.1016-4.0977v-0.95703c-0.003906-2.2617-1.8359-4.0938-4.1016-4.0938h-15.355v-7.0938c0-0.26562-0.10547-0.51953-0.29297-0.70703s-0.44141-0.29297-0.70703-0.29297h-7.1016v-15.355c0-2.2617-1.8281-4.0977-4.0898-4.1016h-0.95312c-1.0859 0-2.1289 0.43359-2.8984 1.1992-0.76953 0.76953-1.1992 1.8125-1.1992 2.9023v15.355h-5.6133v-15.355c0-2.2656-1.8359-4.0977-4.0977-4.1016h-0.95312c-2.2656 0-4.1016 1.8359-4.1016 4.1016v15.355h-5.6133v-15.355c0-1.0898-0.42969-2.1328-1.1992-2.9023-0.76953-0.76562-1.8125-1.1992-2.8984-1.1992h-0.95312c-2.2656 0-4.1016 1.8359-4.1016 4.1016v15.355h-7.3125c-0.55078 0-1 0.44922-1 1v7.3203h-15.355c-2.2656 0-4.0977 1.832-4.1016 4.0938v0.95703c0 1.0859 0.43359 2.1289 1.1992 2.8984 0.76953 0.76953 1.8125 1.1992 2.9023 1.1992h15.355v5.6133h-15.355c-2.2656 0-4.1016 1.8359-4.1016 4.1016v0.95312c0 1.0859 0.43359 2.1289 1.1992 2.8984 0.76953 0.76953 1.8125 1.2031 2.9023 1.2031h15.355v5.6055h-15.355c-1.0898 0-2.1328 0.42969-2.9023 1.1992-0.76562 0.76953-1.1992 1.8125-1.1992 2.8984v0.95703c0.003906 2.2617 1.8359 4.0938 4.1016 4.0938h15.355v7.1016c0 0.26562 0.10547 0.51953 0.29297 0.70703s0.44141 0.29297 0.70703 0.29297h7.0938v15.348c0 2.2656 1.832 4.0977 4.0977 4.1016h0.95312c1.0859 0 2.1289-0.43359 2.8984-1.1992 0.76953-0.76953 1.1992-1.8125 1.1992-2.9023v-15.355h5.6172v15.355c0 2.2617 1.832 4.0977 4.0938 4.1016h0.95312c1.0898 0 2.1328-0.43359 2.8984-1.1992 0.76953-0.76953 1.2031-1.8125 1.2031-2.9023v-15.355h5.6172v15.355c0 1.0898 0.42969 2.1328 1.1992 2.9023 0.76953 0.76562 1.8125 1.1992 2.8984 1.1992h0.95703c2.2617-0.003906 4.0938-1.8359 4.0938-4.1016v-15.355h7.3203c0.26562 0 0.51953-0.10547 0.70703-0.29297s0.29297-0.44141 0.29297-0.70703v-7.3203h15.348c2.2656 0 4.0977-1.832 4.1016-4.0938v-0.95703c0-1.0859-0.43359-2.1289-1.1992-2.8984-0.76953-0.76953-1.8125-1.1992-2.9023-1.1992h-15.355v-5.6133h15.355c1.0898 0 2.1328-0.43359 2.9023-1.2031 0.76562-0.76562 1.1992-1.8086 1.1992-2.8984v-0.94922c0-1.0859-0.43359-2.1289-1.1992-2.8984-0.76953-0.76953-1.8125-1.2031-2.9023-1.2031h-15.355v-5.6094zm0-7.1445c1.1602 0 2.0977 0.9375 2.1016 2.0938v0.95312c0 1.1602-0.94141 2.0977-2.1016 2.0977h-15.355v-5.1484zm-30.598-25.453c0-0.55859 0.21875-1.0938 0.61328-1.4883 0.39453-0.39062 0.92969-0.61328 1.4844-0.61328h0.95703c1.1562 0.003906 2.0938 0.94141 2.0938 2.1016v15.355h-5.1484zm-4.2656 50.934h-16.07v-16.07h16.07zm-5.043 9.3398c-0.29297 0.18359-0.46875 0.50391-0.46875 0.84766v7.3203h-2.5547v-6.7695l1.5938-1c0.29297-0.17969 0.46875-0.5 0.46875-0.84375v-6.8984h2.5547v6.3398zm-6.6758 8.168h-0.89844l-0.003907-6.7695 1.5938-1c0.29297-0.17969 0.47266-0.5 0.47266-0.84375v-6.8984h2.5547v6.3398l-1.5938 1-0.003906-0.003906c-0.28906 0.18359-0.46875 0.50391-0.46875 0.85156v7.3203zm0.69141-43.32-1.5938-1v-6.7656h2.5547v7.3203c0 0.34375 0.17578 0.66406 0.46875 0.84766l1.5938 1v6.3398l-2.5547 0.003906v-6.9023c0-0.34375-0.17578-0.66016-0.46875-0.84375zm7.5781 7.7422h-2.5547v-6.8984c0-0.34375-0.17578-0.66406-0.46875-0.84766l-1.5938-1v-6.7617h2.5547v7.3203c0 0.34375 0.17578 0.66406 0.46875 0.84766l1.5938 1zm-7.0469-32.863c0-0.55859 0.22266-1.0938 0.61719-1.4883 0.39453-0.39062 0.92969-0.61328 1.4844-0.61328h0.95312c0.55859 0 1.0938 0.22266 1.4844 0.61328 0.39453 0.39453 0.61719 0.92969 0.61719 1.4883v15.355h-5.1562zm-14.762 0c0-0.55859 0.22266-1.0938 0.61719-1.4883 0.39062-0.39062 0.92578-0.61328 1.4844-0.61328h0.95312c0.55469 0 1.0898 0.22266 1.4844 0.61328 0.39453 0.39453 0.61328 0.92969 0.61328 1.4883v15.355h-5.1523zm-25.676 30.82c-1.1602 0-2.1016-0.9375-2.1016-2.0977v-0.95703c0.003906-1.1562 0.94141-2.0938 2.1016-2.0938h15.355v5.1445zm0 14.762v0.003906c-1.1602 0-2.0977-0.9375-2.1016-2.0977v-0.95312c0-0.55859 0.22266-1.0938 0.61328-1.4844 0.39453-0.39453 0.92969-0.61719 1.4883-0.61719h15.355v5.1445zm0 14.762v0.003907c-1.1602 0-2.0977-0.9375-2.1016-2.0977v-0.95312c0-0.55469 0.22266-1.0898 0.61328-1.4844 0.39453-0.39453 0.92969-0.61328 1.4883-0.61328h15.355v5.1445zm17.359 1v-43.988h18.953v7.3203c0 0.34375 0.17578 0.66406 0.46875 0.84766l1.5938 1v6.3398l-4.5117 0.003906c-0.55078 0-1 0.44531-1 1v4.3477h-5.8203l-3.6719-10.074c1.2539-0.96094 1.625-2.6914 0.87891-4.082-0.74609-1.3945-2.3906-2.0391-3.8867-1.5312-1.4961 0.51172-2.3984 2.0312-2.1367 3.5898s1.6172 2.6992 3.1953 2.6914c0.019531 0 0.039062 0 0.058593-0.007812l3.9219 10.754h0.003906c0.14063 0.39453 0.51953 0.65625 0.9375 0.65625h6.5195v5.3711l-6.5195 0.003906c-0.41797 0-0.79687 0.26172-0.9375 0.65625l-3.9219 10.758c-0.019532 0-0.039063-0.007812-0.058594-0.007812h-0.003906c-1.6055-0.015625-2.9883 1.1367-3.2578 2.7227-0.27344 1.582 0.64453 3.1289 2.168 3.6523 1.5195 0.51953 3.1953-0.14062 3.9492-1.5586 0.75391-1.4219 0.37109-3.1797-0.91016-4.1484l3.6758-10.07h5.8203v4.3477h-0.003906c0 0.26563 0.10547 0.51953 0.29297 0.70703s0.44141 0.29297 0.70703 0.29297h4.5117v6.3398l-1.5938 1c-0.29297 0.18359-0.46875 0.50391-0.46875 0.84766v7.3203h-18.957zm4.0664-34.539v0.003906c-0.5 0-0.95312-0.30469-1.1445-0.76953-0.19531-0.46094-0.085937-0.99609 0.26953-1.3516 0.35547-0.35547 0.88672-0.46094 1.3516-0.26953 0.46484 0.19141 0.76562 0.64453 0.76562 1.1484 0 0.32812-0.12891 0.64453-0.36328 0.87891s-0.55078 0.36328-0.88281 0.36328zm0 32.184c0.50391 0 0.95703 0.30469 1.1484 0.76953 0.19141 0.46094 0.085938 0.99609-0.26953 1.3516-0.35547 0.35547-0.88672 0.46094-1.3516 0.26953-0.46484-0.19141-0.76953-0.64453-0.76953-1.1484 0.003906-0.68359 0.55469-1.2383 1.2383-1.2422zm9.1719 26.809c0 1.1602-0.9375 2.1016-2.0977 2.1016h-0.95703c-1.1562-0.003906-2.0938-0.94141-2.0938-2.1016v-15.355h5.1484zm14.762 0h0.003906c0 1.1602-0.94141 2.1016-2.1016 2.1016h-0.95312c-1.1562-0.003906-2.0938-0.94141-2.0938-2.1016v-15.355h5.1445zm14.762 0h0.003906c0 1.1602-0.94141 2.1016-2.0977 2.1016h-0.95703c-1.1602 0-2.0977-0.94141-2.0977-2.1016v-15.355h5.1445zm8.3203-17.359h-21.02v-6.7656l1.5938-1c0.28906-0.17969 0.46875-0.5 0.46875-0.84375v-6.8984h2.4492v-0.003906c0.26562 0 0.51953-0.10547 0.70703-0.29297s0.29297-0.44141 0.29297-0.70703v-4.3398h5.8203l3.6758 10.07h-0.003906c-1.2539 0.96094-1.625 2.6914-0.87891 4.082 0.74609 1.3945 2.3906 2.0391 3.8867 1.5312 1.4961-0.51172 2.3984-2.0312 2.1367-3.5898s-1.6172-2.6992-3.1953-2.6914c-0.019531 0-0.039062 0.003906-0.058593 0.007812l-3.9258-10.754c-0.14453-0.39453-0.51953-0.65625-0.9375-0.65625h-6.5195v-5.375h6.5195c0.41797 0 0.79297-0.26172 0.9375-0.65625l3.9219-10.758c0.019532 0 0.039063 0.007812 0.058594 0.007812h0.003906c1.6055 0.015625 2.9883-1.1367 3.2578-2.7227 0.27344-1.582-0.64453-3.1289-2.168-3.6523-1.5195-0.51953-3.1953 0.14062-3.9492 1.5586-0.75391 1.4219-0.37109 3.1797 0.91016 4.1484l-3.6719 10.074h-5.8203v-4.3477c0-0.26562-0.10547-0.51953-0.29297-0.70703s-0.44141-0.29297-0.70703-0.29297h-2.4492v-6.8984c0-0.34766-0.17969-0.66406-0.46875-0.84766l-1.5938-1v-6.7617h21.02v51.086zm-4.0664-9.4531c0.50391 0 0.95703 0.30469 1.1484 0.76953 0.19141 0.46094 0.085938 0.99609-0.26953 1.3516s-0.88672 0.46094-1.3516 0.26953c-0.46484-0.19141-0.76953-0.64453-0.76953-1.1484 0.003906-0.68359 0.55859-1.2344 1.2422-1.2383zm0-32.184v0.003906c-0.5 0-0.95312-0.30469-1.1445-0.76953-0.19531-0.46094-0.085937-0.99609 0.26953-1.3516 0.35156-0.35547 0.88672-0.46094 1.3516-0.26953s0.76562 0.64453 0.76562 1.1484c0.003906 0.32813-0.12891 0.64844-0.36328 0.87891-0.23438 0.23438-0.55078 0.36719-0.87891 0.36719zm21.422 28.176c0.55859 0 1.0938 0.21875 1.4883 0.61328 0.39062 0.39453 0.61328 0.92969 0.61328 1.4844v0.95703c-0.003906 1.1562-0.94141 2.0938-2.1016 2.0938h-15.355v-5.1484zm0-14.762v-0.003906c0.55859 0 1.0938 0.22266 1.4883 0.61719 0.39062 0.39453 0.61328 0.92578 0.61328 1.4844v0.95313c0 1.1602-0.94141 2.1016-2.1016 2.1016h-15.355v-5.1562z"/>
</svg>