<svg xmlns="http://www.w3.org/2000/svg" version="1.1" viewBox="-5.0 -10.0 110.0 135.0">
 <path d="m95.852 47.496-1.793-10.164c-0.38281-2.168-2.1094-3.793-4.2969-4.043l-5.2852-0.60547c-0.59375-1.1523-1.2422-2.2773-1.9453-3.3633l2.1211-4.8828c0.87891-2.0195 0.33203-4.3281-1.3555-5.7422l-7.9062-6.6328c-1.6875-1.4141-4.0547-1.5508-5.8906-0.33594l-4.4375 2.9336c-1.1953-0.50391-2.418-0.94922-3.6562-1.332l-1.5117-5.1016c-0.625-2.1094-2.5273-3.5312-4.7305-3.5312h-10.324c-2.2031 0-4.1016 1.418-4.7305 3.5312l-1.5117 5.1016c-1.2422 0.38281-2.4648 0.82812-3.6562 1.332l-4.4375-2.9336c-1.8359-1.2148-4.207-1.082-5.8906 0.33594l-7.9062 6.6328c-1.6875 1.4141-2.2305 3.7227-1.3555 5.7461l2.1211 4.8828c-0.70312 1.0859-1.3555 2.2148-1.9453 3.3633l-5.2852 0.60547c-2.1875 0.25-3.9141 1.875-4.2969 4.043l-1.793 10.164c-0.38281 2.168 0.68359 4.2852 2.6562 5.2695l4.7656 2.3789c0.16016 1.2891 0.38281 2.5703 0.66797 3.8281l-3.6602 3.8594c-1.5156 1.5977-1.793 3.9531-0.69141 5.8594l5.1602 8.9375c1.1016 1.9062 3.2812 2.8438 5.4219 2.332l5.1836-1.2422c0.94922 0.88281 1.9414 1.7148 2.9727 2.4961l-0.32422 5.3164c-0.13281 2.1992 1.168 4.1797 3.2383 4.9336l9.6992 3.5312c0.5625 0.20312 1.1367 0.30469 1.707 0.30469 1.5273 0 2.9922-0.71484 3.9453-2.0039l3.1719-4.2812c1.3047 0.066407 2.5742 0.066407 3.8789 0l3.1719 4.2812c1.3125 1.7695 3.582 2.4531 5.6523 1.6992l9.6992-3.5312c2.0703-0.75391 3.3711-2.7383 3.2383-4.9336l-0.32422-5.3164c1.0312-0.78125 2.0234-1.6172 2.9727-2.4961l5.1836 1.2422c2.1406 0.51172 4.3203-0.42188 5.4219-2.332l5.1602-8.9375c1.1016-1.9062 0.82422-4.2617-0.69141-5.8594l-3.6602-3.8594c0.28516-1.2617 0.51172-2.5391 0.67188-3.8281l4.7656-2.3789c1.9688-0.98438 3.0391-3.1016 2.6562-5.2695zm-4.668 1.2422-5.8672 2.9258c-0.69922 0.34766-1.168 1.0352-1.2383 1.8125-0.17188 1.8867-0.5 3.7656-0.97656 5.582-0.19922 0.75391 0.007813 1.5547 0.54297 2.1211l4.5078 4.7539c0.14453 0.15234 0.16406 0.32812 0.058594 0.51172l-5.1602 8.9375c-0.10547 0.17969-0.26953 0.25391-0.47266 0.20313l-6.3789-1.5273c-0.75781-0.17969-1.5547 0.042968-2.1094 0.58984-1.3438 1.3281-2.8008 2.5547-4.3398 3.6445-0.63672 0.44922-0.99219 1.1953-0.94531 1.9727l0.39844 6.543c0.011719 0.21094-0.085937 0.35938-0.28125 0.42969l-9.6992 3.5312c-0.19531 0.070313-0.36719 0.019531-0.49219-0.14844l-3.9023-5.2695c-0.46484-0.625-1.2188-0.96875-1.9922-0.90234-0.95313 0.078125-1.9062 0.11719-2.8359 0.11719-0.92578 0-1.8828-0.039062-2.8359-0.11719-0.77734-0.0625-1.5312 0.27734-1.9922 0.90234l-3.9023 5.2695c-0.125 0.16797-0.29688 0.21875-0.49219 0.14844l-9.6992-3.5312c-0.19922-0.070312-0.29297-0.21875-0.28125-0.42969l0.39844-6.543c0.046876-0.77734-0.30859-1.5234-0.94531-1.9727-1.5352-1.0859-2.9961-2.3125-4.3398-3.6445-0.42578-0.42188-0.99609-0.65234-1.5859-0.65234-0.17578 0-0.35156 0.019531-0.52344 0.0625l-6.3789 1.5273c-0.20312 0.050781-0.36719-0.019532-0.47266-0.20313l-5.1602-8.9375c-0.10547-0.17969-0.082031-0.35937 0.058594-0.51172l4.5078-4.7539c0.53516-0.56641 0.74219-1.3672 0.54297-2.1211-0.47656-1.8125-0.80469-3.6914-0.97656-5.582-0.070313-0.77734-0.53906-1.4609-1.2383-1.8086l-5.8672-2.9258c-0.1875-0.09375-0.26953-0.25391-0.23047-0.46094l1.793-10.164c0.035156-0.20703 0.16797-0.32813 0.375-0.35156l6.5078-0.74219c0.77344-0.089844 1.4453-0.57031 1.7812-1.2773 0.80469-1.7031 1.7578-3.3555 2.8398-4.9062 0.44531-0.64062 0.52734-1.4648 0.21484-2.1797l-2.6133-6.0117c-0.082031-0.19141-0.042969-0.36719 0.11719-0.5l7.9062-6.6328c0.16016-0.13281 0.33984-0.14453 0.51563-0.03125l5.4609 3.6133c0.65234 0.42969 1.4766 0.49219 2.1875 0.16797 1.7109-0.78906 3.5039-1.4414 5.3281-1.9375 0.75391-0.20703 1.3477-0.78516 1.5664-1.5312l1.8633-6.2773c0.058593-0.20312 0.20312-0.30859 0.41406-0.30859h10.324c0.21094 0 0.35156 0.10547 0.41406 0.30859l1.8633 6.2773c0.22266 0.74609 0.81641 1.3281 1.5664 1.5312 1.8242 0.49609 3.6172 1.1484 5.3281 1.9375 0.70703 0.32812 1.5352 0.26562 2.1875-0.16797l5.4609-3.6133c0.17578-0.11719 0.35156-0.10547 0.51562 0.03125l7.9062 6.6328c0.16016 0.13281 0.20312 0.30859 0.11719 0.5l-2.6133 6.0117c-0.3125 0.71484-0.23047 1.5391 0.21484 2.1797 1.0781 1.5508 2.0312 3.1992 2.8398 4.9062 0.33203 0.70312 1.0078 1.1875 1.7812 1.2734l6.5078 0.74219c0.21094 0.023437 0.33984 0.14453 0.375 0.35156l1.793 10.164c0.035157 0.20703-0.042969 0.36719-0.23047 0.46094zm-41.184-22.656c-13.188 0-23.918 10.73-23.918 23.918s10.73 23.918 23.918 23.918 23.918-10.73 23.918-23.918-10.73-23.918-23.918-23.918zm0 43.332c-10.707 0-19.414-8.7109-19.414-19.414 0-10.707 8.7109-19.414 19.414-19.414 10.707 0 19.414 8.7109 19.414 19.414 0 10.707-8.7109 19.414-19.414 19.414z"/>
<text x="0.0" y="117.5" font-size="5.0" font-weight="bold" font-family="Arbeit Regular, Helvetica, Arial-Unicode, Arial, Sans-serif" fill="#000000">Created by nuriyah</text><text x="0.0" y="122.5" font-size="5.0" font-weight="bold" font-family="Arbeit Regular, Helvetica, Arial-Unicode, Arial, Sans-serif" fill="#000000">from Noun Project</text></svg>