<svg xmlns="http://www.w3.org/2000/svg" version="1.1" viewBox="-5.0 -10.0 110.0 135.0">
 <path d="m86.98 36.359-0.14844 7.3594-0.37109 14.719-0.21875 7.3594-0.03125 0.92188v0.46094l-0.039063 0.32031c-0.03125 0.42188-0.10938 0.82812-0.19922 1.2383-0.21094 0.80078-0.53906 1.5703-0.98047 2.2617-0.42188 0.64062-0.94922 1.25-1.5703 1.7812-0.32031 0.25-0.64062 0.51172-1 0.71094l-1.5195 0.91016c-2.1719 1.3008-4.2812 2.6484-6.0586 4-3.5508 2.6914-5.75 5.3203-4.3711 7.3398 1.1406 1.6484 4.3398 0.76953 8.1602-1.0703 1.9102-0.92188 3.9805-2.0781 6.0195-3.2812 0.51172-0.30078 1.0195-0.60156 1.5312-0.89844 0.26172-0.14844 0.64844-0.41016 0.96094-0.60938 0.32031-0.23047 0.64062-0.46094 0.94141-0.71094 1.1992-0.98047 2.2188-2.1211 3.0195-3.2891 0.92188-1.3281 1.6094-2.8086 2.0703-4.3711 0.23047-0.76953 0.39062-1.5703 0.5-2.3711 0.039063-0.39844 0.089844-0.80078 0.10156-1.2109l0.019531-0.60938v-0.48047-7.2109l-0.039063-14.422-0.03125-7.2109-0.019531-3.6016v-0.89844c0-0.32031 0-0.53906-0.019531-0.98828-0.011719-0.80078-0.10938-1.6016-0.25-2.3906-0.58984-3.1602-2.1992-6.1094-4.5312-8.3008-0.57812-0.55078-1.2109-1.0508-1.8711-1.5l-0.5-0.32031-0.46094-0.28125-0.78125-0.46094-3.1016-1.8281-24.891-14.707c-2.7305-1.5781-5.9609-2.2617-9.0898-1.9219-1.5586 0.17188-3.1016 0.57812-4.5312 1.2305-0.35938 0.16016-0.71094 0.33984-1.0508 0.51953l-0.51172 0.28906-0.39844 0.23828-1.5391 0.92969-12.352 7.4414-12.922 7.75-1.6719 1.0117c-0.69922 0.42969-1.3516 0.92969-1.9688 1.4688-1.2305 1.0781-2.2695 2.3789-3.0898 3.8008-0.80078 1.4297-1.3789 2.9805-1.6914 4.5898-0.14062 0.80859-0.25 1.6211-0.26172 2.4414-0.019531 0.44922 0 0.69141-0.011718 1.0312v0.94141 30.141 2.8984c0.019531 0.41016 0.039062 0.82031 0.089843 1.2305 0.16016 1.6289 0.60938 3.2305 1.3008 4.7188 0.67969 1.4883 1.6289 2.8516 2.75 4.0508 0.57031 0.58984 1.1797 1.1406 1.8398 1.6289 0.32031 0.25 0.66016 0.48047 1.0117 0.69922l0.46094 0.28906 0.39844 0.23828 25.859 15.5 1.6211 0.96875c0.46875 0.28125 1.25 0.76172 1.9805 1.0781 1.4883 0.69141 3.0898 1.1211 4.7188 1.2891 1.6289 0.16016 3.2812 0.058593 4.8789-0.30859 1.5703-0.35938 3.1797-1.0312 4.4688-1.8398 5.6719-3.4102 14.578-7.6289 13.09-10.93-1.6094-3.5586-9.8594 2.6484-15.27 5.8516l-0.78906 0.46875c-0.21875 0.12891-0.44141 0.25-0.67188 0.35938-0.44922 0.21875-0.92969 0.41016-1.4102 0.55078-0.23047 0.070313-0.46875 0.12891-0.69922 0.17969 0.12109-0.53906-0.089844-1.1602-0.070313-1.6484 0.55859-13.422-0.82812-26.859 1.6992-40.262 0.73828-0.17187 1.4609-0.37891 2.1719-0.64844 0.48047-0.19141 0.94922-0.39844 1.4219-0.62891l0.67969-0.35938 0.60937-0.35938 2.0898-1.25 8.3516-5.0117 16.691-10.039c0.46094-0.28125 1.0195-0.53906 1.5508-0.82813v0.21875l-0.058594 3.6406zm-43.27 55.289-12.609-7.6211-12.629-7.6016c-1.0195-0.62891-2.2188-1.2891-2.9297-1.8281-0.80078-0.58984-1.4883-1.3281-2.0508-2.1484-0.57031-0.82031-0.98828-1.7383-1.2695-2.6914-0.14062-0.48047-0.23828-0.96875-0.30078-1.4609-0.019531-0.25-0.058594-0.5-0.058594-0.75v-0.37891l-0.011719-0.46094-0.03125-29.48v-3.6914c0-0.44141 0-0.78906 0.011719-1.1211 0.94141 0.80859 2.1719 1.4688 3.1602 2.0703 5.3086 3.2305 10.691 6.3203 16.078 9.4102l8.0781 4.6406 2.0117 1.1719c0.75 0.44922 1.7109 0.92969 2.6211 1.2812 0.64844 0.25 1.3281 0.44141 2.0117 0.60938-0.039063 6.4414 0.48047 12.879 0.48047 19.328 0.089843 0 0.039062 0 0 0 0 6.9492-0.019532 13.898 0.019531 20.859 0 0.37891-0.10156 0.82031-0.10938 1.2383-0.32031-0.14063-0.64062-0.26953-0.94922-0.44141l-1.5195-0.91016zm22.75-53.469-8.1484 4.9297-2.0391 1.2305-1.0195 0.60938c-0.28906 0.17188-0.57812 0.32812-0.87891 0.46875-1.1914 0.57031-2.5 0.92188-3.8203 1.0117-1.3203 0.089843-2.6602-0.058594-3.9219-0.46875-0.62891-0.19922-1.2383-0.46094-1.8203-0.78125-0.51953-0.28906-1.2695-0.76953-1.9219-1.1797-2.6914-1.6797-5.3711-3.3906-8.0312-5.1289-5.3086-3.4805-10.539-7.0898-15.641-10.93-1.1719-0.87891-2.6016-1.9297-4.0391-2.2812 0.070312-0.058594 0.14062-0.12109 0.21094-0.17969 0.19922-0.14062 0.39844-0.30859 0.60938-0.44141l0.32031-0.19922 0.39063-0.23828 1.5781-0.94922 3.1602-1.8984 6.3203-3.7891 12.66-7.5586 3.1719-1.8906 1.5508-0.92188c0.42969-0.25 0.89062-0.46094 1.3516-0.62891 1.8594-0.69141 3.9492-0.75 5.8516-0.17969 0.46875 0.14062 0.94141 0.32031 1.3789 0.53906 0.21875 0.10938 0.44141 0.21875 0.64844 0.35156l0.76172 0.46094 3.1484 1.9219 6.2891 3.8398 12.551 7.7188 3.1289 1.9414 1.5703 0.96875c0.5 0.30859 1.1094 0.67969 1.4492 0.92188 0.64844 0.44922 1.2109 1 1.7109 1.6016-0.75 0.42969-1.4805 1.0312-2.1289 1.3984-5.5195 3.1484-10.969 6.3984-16.41 9.6797z"/>
<text x="0.0" y="117.5" font-size="5.0" font-weight="bold" font-family="Arbeit Regular, Helvetica, Arial-Unicode, Arial, Sans-serif" fill="#000000">Created by Gregor Cresnar</text><text x="0.0" y="122.5" font-size="5.0" font-weight="bold" font-family="Arbeit Regular, Helvetica, Arial-Unicode, Arial, Sans-serif" fill="#000000">from Noun Project</text></svg>